<svg xmlns="http://www.w3.org/2000/svg" width="54.786" height="44.09" viewBox="0 0 54.786 44.09">
  <g id="그룹_40" data-name="그룹 40" transform="translate(-107.332 -238.563)">
    <path id="패스_180" data-name="패스 180" d="M162.118,252.6a14.041,14.041,0,0,0-27.393-4.345,14.042,14.042,0,1,0-25.692,11.049h0s.026.047.076.132q.322.577.7,1.119a67.583,67.583,0,0,0,24.84,22.094s15.277-8.027,24.662-21.62h0A13.978,13.978,0,0,0,162.118,252.6Zm-28.9,7.534a13.978,13.978,0,0,0,1.506-3.189,13.971,13.971,0,0,0,1.574,3.294Z" transform="translate(0 0)" fill="#f37021"/>
    <circle id="타원_94" data-name="타원 94" cx="6.201" cy="6.201" r="6.201" transform="matrix(0.526, -0.851, 0.851, 0.526, 126.18, 260.208)" fill="#f37021"/>
    <path id="패스_181" data-name="패스 181" d="M168.528,294.708a2.361,2.361,0,0,0-3.6,0l-4.808,5.366,0,0a9.329,9.329,0,0,1-6.5,3.359,9.46,9.46,0,0,1-7.461-3.609l-.03.058-4.632-5.17a2.361,2.361,0,0,0-3.6,0,3.076,3.076,0,0,0,0,4.015l8.916,9.95v4.588l6.4,4.454L159.8,313.1v-4.642l8.727-9.74A3.077,3.077,0,0,0,168.528,294.708Z" transform="translate(-18.574 -37.452)" fill="#f37021"/>
  </g>
</svg>
