<svg xmlns="http://www.w3.org/2000/svg" width="64.309" height="51.754" viewBox="0 0 64.309 51.754">
  <g id="그룹_38" data-name="그룹 38" transform="translate(-107.332 -238.563)">
    <path id="패스_180" data-name="패스 180" d="M171.641,255.044a16.482,16.482,0,0,0-32.154-5.1,16.483,16.483,0,1,0-30.158,12.97h0s.031.055.089.155q.378.677.816,1.314a79.33,79.33,0,0,0,29.158,25.935s17.933-9.423,28.949-25.378h0A16.407,16.407,0,0,0,171.641,255.044Zm-33.923,8.844a16.41,16.41,0,0,0,1.768-3.743,16.4,16.4,0,0,0,1.848,3.867Z" transform="translate(0 0)" fill="#f37021"/>
    <circle id="타원_94" data-name="타원 94" cx="6.816" cy="6.816" r="6.816" transform="matrix(0.526, -0.851, 0.851, 0.526, 130.094, 263.705)" fill="#fff"/>
    <path id="패스_181" data-name="패스 181" d="M175.637,294.79a3.12,3.12,0,0,0-4.412,0l-5.9,5.9,0-.005a11.814,11.814,0,0,1-7.975,3.692,12.021,12.021,0,0,1-9.151-3.966l-.036.064-5.682-5.682a3.12,3.12,0,1,0-4.412,4.412L149,310.139v5.042l7.849,4.9,8.08-5.067v-5.1l10.7-10.7A3.12,3.12,0,0,0,175.637,294.79Z" transform="translate(-17.46 -32.386)" fill="#fff"/>
  </g>
</svg>
