<svg xmlns="http://www.w3.org/2000/svg" width="57.856" height="44.201" viewBox="0 0 57.856 44.201">
  <g id="그룹_37" data-name="그룹 37" transform="translate(-188.017 -171.529)">
    <circle id="타원_91" data-name="타원 91" cx="5.628" cy="5.628" r="5.628" transform="translate(191.037 177.157)" fill="#f37021"/>
    <circle id="타원_92" data-name="타원 92" cx="5.628" cy="5.628" r="5.628" transform="translate(231.253 177.157)" fill="#f37021"/>
    <circle id="타원_93" data-name="타원 93" cx="5.628" cy="5.628" r="5.628" transform="translate(211.343 171.529)" fill="#f37021"/>
    <path id="패스_178" data-name="패스 178" d="M248.825,208.871a9.184,9.184,0,0,0-16.469,0,10.356,10.356,0,0,0-.691,1.608l8.925,5.53,8.928-5.522A10.4,10.4,0,0,0,248.825,208.871Z" transform="translate(-23.619 -17.438)" fill="#f37021"/>
    <path id="패스_179" data-name="패스 179" d="M236.881,215.2a8.964,8.964,0,0,0-6.824,3.146l-11.84,7.041a2.4,2.4,0,0,1-2.481-.017l-12.57-7.718a8.953,8.953,0,0,0-6.158-2.451h0a8.992,8.992,0,0,0-8.991,8.991v12.629a2.54,2.54,0,0,0,2.54,2.539h12.9a2.54,2.54,0,0,0,2.54-2.539v-8.257l9.736,5.978a2.4,2.4,0,0,0,2.481.017l9.673-5.752v8.013a2.54,2.54,0,0,0,2.54,2.539h12.9a2.54,2.54,0,0,0,2.54-2.539V224.2A8.992,8.992,0,0,0,236.881,215.2Z" transform="translate(0 -23.634)" fill="#f37021"/>
  </g>
</svg>
