<svg xmlns="http://www.w3.org/2000/svg" width="62.128" height="44.202" viewBox="0 0 62.128 44.202">
  <g id="그룹_39" data-name="그룹 39" transform="translate(-145.372 -250.568)">
    <circle id="타원_95" data-name="타원 95" cx="8.003" cy="8.003" r="8.003" transform="translate(182.252 250.568)" fill="#f37021"/>
    <circle id="타원_96" data-name="타원 96" cx="8.003" cy="8.003" r="8.003" transform="translate(154.196 250.568)" fill="#f37021"/>
    <path id="사각형_123" data-name="사각형 123" d="M4.109,0h7.8A4.109,4.109,0,0,1,16.02,4.109V16.958a3.683,3.683,0,0,1-3.683,3.683H3.683A3.683,3.683,0,0,1,0,16.958V4.109A4.109,4.109,0,0,1,4.109,0Z" transform="translate(183.135 274.129)" fill="#f37021"/>
    <path id="패스_182" data-name="패스 182" d="M166.286,292.424l-8.471,20.45a2.1,2.1,0,0,0,1.935,2.9H177.61a2.1,2.1,0,0,0,1.935-2.9l-8.471-20.45A2.592,2.592,0,0,0,166.286,292.424Z" transform="translate(-6.481 -21.243)" fill="#f37021"/>
    <path id="패스_183" data-name="패스 183" d="M210.987,307.663a11.5,11.5,0,0,1,22.853-1.839,11.686,11.686,0,0,1,.134,2.354,2.6,2.6,0,0,0,2.572,2.757h.17a2.571,2.571,0,0,0,2.576-2.424q.021-.421.021-.848a16.827,16.827,0,0,0-33.655,0q0,.427.022.848a2.57,2.57,0,0,0,2.576,2.424h.229A2.542,2.542,0,0,0,211,308.228Q210.988,307.948,210.987,307.663Z" transform="translate(-31.814 -21.249)" fill="#f37021"/>
    <path id="패스_184" data-name="패스 184" d="M145.372,262.738q0-.427.021-.848a2.571,2.571,0,0,1,2.576-2.424h.229a2.542,2.542,0,0,1,2.515,2.707q-.013.281-.014.565a11.5,11.5,0,0,0,11.5,11.5v5.33A16.827,16.827,0,0,1,145.372,262.738Z" transform="translate(0 -4.695)" fill="#f37021"/>
    <path id="패스_185" data-name="패스 185" d="M181,290.836v5.33c.387,0,.778.017,1.173.056a11.52,11.52,0,0,1,10.18,9.6,11.687,11.687,0,0,1,.134,2.354,2.6,2.6,0,0,0,2.572,2.757h.17a2.571,2.571,0,0,0,2.576-2.424q.021-.422.021-.848A16.827,16.827,0,0,0,181,290.836Z" transform="translate(-18.802 -21.249)" fill="#f37021"/>
  </g>
</svg>
